<?xml version="1.0" encoding="UTF-8"?>
<svg id="Layer_2" data-name="Layer 2" xmlns="http://www.w3.org/2000/svg" viewBox="0 0 253 25.41">
  <defs>
    <style>
      .cls-1 {
        fill: #004cff;
        stroke-width: 0px;
      }
    </style>
  </defs>
  <g id="Layer_1-2" data-name="Layer 1">
    <g>
      <path class="cls-1" d="M84.19,17.3c-.36-.34-.92-.34-1.28,0-1.11,1.01-2.57,1.57-4.07,1.57-2.69,0-5.1-1.76-5.1-5.73s2.26-5.74,4.71-5.74c2.55,0,4.61,2.06,4.61,4.61,0,.07,0,.14,0,.2h-6.28c-.55,0-1,.45-1,1v.93h8.43c.7,0,1.26-.55,1.27-1.25,0-.02,0-.03,0-.05-.15-4.65-3.09-7.6-7-7.6-4.17,0-7.26,3.39-7.26,7.9-.19,4.17,3.04,7.69,7.2,7.88.12,0,.23,0,.35,0,2.45.03,4.77-1.05,6.33-2.94l-.91-.79Z"/>
      <path class="cls-1" d="M110.32,6.67c1.74-.86,3.65-1.32,5.59-1.33,4.17,0,6.47,2.16,6.47,6.13v9.27h-1.42c-.55,0-1-.45-1-1v-1c-1.31,1.52-3.24,2.36-5.25,2.3-2.74,0-5.69-1.52-5.69-4.8s2.45-5,6.52-5h2.55v.94c0,.55-.45,1-1,1h-1.32c-2.65,0-4.22,1.12-4.22,3s1.87,2.84,3.63,2.84c2.75,0,4.86-1.67,4.86-3.87v-3.58c0-2.55-1.52-3.92-4.32-3.92-1.26.02-2.51.26-3.68.73-.46.19-.99-.02-1.18-.48-.02-.04-.03-.08-.04-.11l-.5-1.12Z"/>
      <path class="cls-1" d="M52.12,2.7h-1.47c-.55,0-1-.45-1-1V.24h1.47c.55,0,1,.45,1,1v1.46Z"/>
      <path class="cls-1" d="M190.38,2.7h-1.47c-.55,0-1-.45-1-1V.24h1.47c.55,0,1,.45,1,1v1.46Z"/>
      <path class="cls-1" d="M35.65,7.99c-1.54-1.8-3.8-2.83-6.17-2.8-4.37,0-7.92,3.55-7.92,7.92,0,4.37,3.55,7.92,7.92,7.92,2.43,0,4.74-1.11,6.27-3l-.93-.88c-.38-.33-.94-.33-1.32,0-1.05,1.04-2.45,1.63-3.92,1.67-3.03-.07-5.42-2.58-5.35-5.6,0-.03,0-.06,0-.09-.15-2.96,2.13-5.48,5.09-5.63.05,0,.11,0,.16,0,1.46.03,2.85.63,3.87,1.67.38.35.97.33,1.33-.05,0,0,0,0,0,0l.97-1.12Z"/>
      <path class="cls-1" d="M62.48,20.74c.64-.01,1.22-.41,1.47-1l6.17-14.17h-1.32c-.81,0-1.54.47-1.86,1.22l-4.38,10.56-4.41-10.54c-.32-.75-1.05-1.23-1.86-1.22h-1.37l6.12,14.17c.25.58.81.96,1.44.98Z"/>
      <path class="cls-1" d="M46.04,18.09c-.72.35-1.5.56-2.3.59-1.13.17-2.19-.6-2.36-1.73-.03-.21-.03-.42,0-.63V7.79h4.71v-1.22c0-.55-.45-1-1-1h-3.71V1.22c0-.55-.45-1-1-1h-1.45v16.5c-.04,2.34,1.81,4.27,4.15,4.31,0,0,.01,0,.02,0,1.04.03,2.08-.2,3-.69l-.06-2.25Z"/>
      <path class="cls-1" d="M50.65,20.74h1.47V6.57c0-.55-.45-1-1-1h-1.45v14.19c-.03.51.35.95.86.98.04,0,.08,0,.12,0Z"/>
      <path class="cls-1" d="M106.98,3.33C104.89,1.16,101.99-.05,98.98,0c-5.66-.07-10.31,4.45-10.38,10.11,0,.16,0,.32,0,.48-.19,5.62,4.21,10.34,9.83,10.53.14,0,.28,0,.42,0,3.14.03,6.14-1.29,8.23-3.64l-1-1c-.38-.33-.94-.33-1.32,0-1.56,1.52-3.66,2.36-5.84,2.36-4.31,0-7.64-3.63-7.64-8.24s3.28-8.14,7.64-8.14c2.1.04,4.11.82,5.69,2.21.4.31.98.27,1.33-.1l1.04-1.25Z"/>
      <path class="cls-1" d="M143.48,5.24c-2.13-.05-4.12,1.04-5.24,2.85-.91-1.8-2.79-2.91-4.81-2.85-1.88-.03-3.64.92-4.66,2.5v-1.17c0-.55-.45-1-1-1h-1.47v15.17h1.47c.55,0,1-.45,1-1v-7.63c0-2.65,1.67-4.56,4-4.56s3.71,1.62,3.71,4.31v7.9c0,.55.45,1,1,1h1.47v-8.75c0-3.09,2-4.46,4-4.46,2.36,0,3.73,1.57,3.73,4.36v7.85c0,.55.45,1,1,1h1.47v-9.39c-.05-3.77-2.21-6.13-5.67-6.13Z"/>
      <path class="cls-1" d="M161.21,5.24c-2.25-.01-4.35,1.12-5.59,3v-1.67c0-.55-.45-1-1-1h-1.47v18.84c0,.55.45,1,1,1h1.47v-7.27c1.27,1.83,3.36,2.91,5.59,2.89,3.53,0,7.26-2.79,7.26-7.89s-3.78-7.9-7.26-7.9ZM165.92,13.14c0,3.33-2.11,5.64-5.1,5.64-2.97-.07-5.32-2.53-5.25-5.5,0-.05,0-.09,0-.14-.15-2.97,2.13-5.49,5.1-5.64.05,0,.1,0,.15,0,2.94,0,5.1,2.41,5.1,5.65Z"/>
      <path class="cls-1" d="M188.86,20.74h1.47V6.57c0-.55-.45-1-1-1h-1.45v14.19c.01.54.44.97.98.98Z"/>
      <path class="cls-1" d="M194.4,23.24c2.06,1.41,4.5,2.16,7,2.15,4.91,0,7.7-2.69,7.7-7.4V5.59h-1.47c-.55,0-1,.45-1,1v1.4c-2.44-3.12-6.94-3.67-10.05-1.23s-3.67,6.94-1.23,10.05c1.35,1.72,3.41,2.73,5.59,2.75,2.25.02,4.38-1.06,5.69-2.89v1.37c0,3.29-1.91,5.15-5.29,5.15-1.77,0-3.5-.49-5-1.42-.41-.28-.97-.18-1.25.23-.03.04-.05.07-.07.11l-.62,1.13ZM206.61,12.4c-.06,2.82-2.39,5.06-5.21,5-.04,0-.08,0-.13,0-2.68.08-4.92-2.02-5-4.7,0-.1,0-.2,0-.3-.06-2.64,2.03-4.84,4.67-4.9.11,0,.22,0,.33,0,2.8-.15,5.18,1.99,5.34,4.79,0,.04,0,.07,0,.11Z"/>
      <path class="cls-1" d="M220.53,5.24c-2.01-.07-3.9.92-5,2.6v-1.27c0-.55-.45-1-1-1h-1.47v15.17h1.47c.55,0,1-.45,1-1v-7.7c-.16-2.33,1.61-4.35,3.94-4.5.13,0,.25-.01.38,0,2.5,0,4,1.62,4,4.36v7.85c0,.55.45,1,1,1h1.47v-9.42c.05-3.67-2.21-6.08-5.79-6.08Z"/>
      <path class="cls-1" d="M250.05,12.79l-12.7,8.44c-.55.37-.87,1-.87,1.66v2.11l15.39-10.1c.7-.48,1.12-1.27,1.13-2.11,0-.85-.42-1.64-1.13-2.1l-15.39-10.01v2c0,.67.33,1.29.88,1.66l12.69,8.45Z"/>
      <path class="cls-1" d="M242.4,13.49c.69.44,1.57.44,2.26,0l1.08-.73-8.05-5.45c-.36-.24-.84-.15-1.08.2-.09.13-.14.28-.14.44v1.62l4.17,2.79,1.76,1.13Z"/>
      <path class="cls-1" d="M172,6.67c1.74-.86,3.65-1.32,5.59-1.33,4.16,0,6.47,2.16,6.47,6.13v9.27h-1.42c-.55,0-1-.45-1-1v-1c-1.31,1.52-3.24,2.36-5.25,2.3-2.75,0-5.69-1.52-5.69-4.8s2.45-5,6.52-5h2.55v.94c0,.55-.45,1-1,1h-1.29c-2.65,0-4.22,1.12-4.22,3s1.86,2.84,3.63,2.84c2.75,0,4.85-1.67,4.85-3.87v-3.58c0-2.55-1.52-3.92-4.31-3.92-1.26.02-2.51.26-3.68.73-.45.22-.99.04-1.2-.41-.03-.06-.05-.12-.07-.18l-.48-1.12Z"/>
      <path class="cls-1" d="M19.48,20.74h1.42L12.11,1.27c-.26-.68-.94-1.09-1.66-1-.71-.11-1.4.31-1.62,1L0,20.74h1.33c.79-.02,1.51-.47,1.86-1.18l1.86-4.07h7c.55,0,1-.45,1-1v-1.35h-7L10.48,3.33l7.17,16.16c.3.75,1.02,1.24,1.83,1.25Z"/>
    </g>
  </g>
</svg>