<svg id="Logo" xmlns="http://www.w3.org/2000/svg" viewBox="0 0 1216.57 899.33"><defs><style>.cls-1{fill:#2a2941;}.cls-2{fill:#7856ff;}</style></defs><title>CM_Logo</title><g id="Logo_Dark_Stack_1"><path class="cls-1" d="M903.93,403.75c-10.09,0-17.86,2.16-17.86,11.5v9.13c0,9.33,7.77,11.75,17.86,11.75s17.89-2.42,17.89-11.75v-9.13C921.82,405.91,914.05,403.75,903.93,403.75Z"/><path class="cls-1" d="M911.2,454.39H897A8.55,8.55,0,0,0,888.4,463V585.36a8.56,8.56,0,0,0,8.55,8.56H911.2a8.56,8.56,0,0,0,8.55-8.56V463A8.55,8.55,0,0,0,911.2,454.39Z"/><path class="cls-1" d="M495.1,453c-20.73,0-35.25,9.06-46.12,23.58C441.73,462,427.73,453,408,453c-21,0-32.9,11.4-41.71,23.58V462.94a8.55,8.55,0,0,0-8.55-8.55H343.53a8.55,8.55,0,0,0-8.55,8.55V585.36a8.55,8.55,0,0,0,8.55,8.56h14.24a8.55,8.55,0,0,0,8.55-8.56V515.42c0-21,11.91-34,29.28-34s27.72,11.93,27.72,33.18v70.72a8.55,8.55,0,0,0,8.55,8.56h14.24a8.56,8.56,0,0,0,8.56-8.56V515.42c0-22,12.17-34,29.27-34,17.62,0,27.72,11.68,27.72,33.43v70.47a8.55,8.55,0,0,0,8.54,8.56h14.25a8.55,8.55,0,0,0,8.55-8.56V505.3C543,471.88,524.89,453,495.1,453Z"/><path class="cls-1" d="M98.37,440.11a61.11,61.11,0,0,1,37.3,12.54,8.23,8.23,0,0,0,10.8-.73l11-11a8.32,8.32,0,0,0,2.4-6.28,8.21,8.21,0,0,0-3.09-6A92.45,92.45,0,0,0,98.37,408.3a93.64,93.64,0,0,0,0,187.28,92.53,92.53,0,0,0,58.38-20.41,8.24,8.24,0,0,0,.68-12.24l-11-11a8.25,8.25,0,0,0-5.83-2.39,8.12,8.12,0,0,0-5,1.66,61.09,61.09,0,0,1-37.29,12.53,61.83,61.83,0,0,1,0-123.65Z"/><path class="cls-1" d="M1068,454.39h-14.24a8.56,8.56,0,0,0-8.56,8.56v13.72c-10.1-14.26-24.35-23.58-46.63-23.58-32.13,0-63.48,25.39-63.48,71v.52c0,45.34,31.09,71,63.48,71,22.79,0,37-10.47,46.63-23.17l.26-.32v12.67c0,23.57-18.21,45.16-43.61,45.16-15.59,0-29.9-7.22-37-19.38A8.55,8.55,0,0,0,953,607.69l-6,4a8.58,8.58,0,0,0-2.9,11.76c11.78,19.24,32.65,32,59.08,32,45.35,0,73.32-32.38,73.32-71.25V463A8.55,8.55,0,0,0,1068,454.39Zm-25.64,70.2c0,26.17-18,43.8-38.44,43.8-20.74,0-37-16.85-37-43.8v-.52c0-26.42,16.54-43.77,37-43.77s38.44,17.61,38.44,43.77Z"/><path class="cls-1" d="M1172.61,453.09c-21.26,0-33.95,10.78-42.76,23.46V462.94a8.56,8.56,0,0,0-8.55-8.55H1107a8.55,8.55,0,0,0-8.53,8.55V585.36a8.56,8.56,0,0,0,8.53,8.56h14.26c4.71,0,8.55-3.83,8.55-9.85V510.36a30.06,30.06,0,1,1,60.12,0v75a8.55,8.55,0,0,0,8.53,8.56h14.26a8.56,8.56,0,0,0,8.55-8.56V505.42C1221.31,473.82,1203.42,453.09,1172.61,453.09Z"/><path class="cls-1" d="M643,453.09c-22.28,0-36.53,9.2-46.63,23.46V463a8.56,8.56,0,0,0-8.56-8.56H573.58A8.56,8.56,0,0,0,565,463V642.62a8.57,8.57,0,0,0,8.56,8.57h14.24a8.57,8.57,0,0,0,8.56-8.57V572.1c9.59,12.7,23.84,23.49,46.63,23.49,32.39,0,63.47-25.66,63.47-71v-.52C706.48,478.48,675.14,453.09,643,453.09Zm31.65,71.5c0,26.17-18,43.81-38.44,43.81-20.73,0-37-16.86-37-43.81v-.52c0-26.42,16.53-43.77,37-43.77s38.44,17.62,38.44,43.77Z"/><path class="cls-1" d="M314.3,571.77h0a6,6,0,0,1-6-6V463a8.55,8.55,0,0,0-8.55-8.56H285.47a8.56,8.56,0,0,0-8.56,8.56v13.6c-10.1-14.26-24.36-23.46-46.64-23.46-32.12,0-63.47,25.39-63.47,71v.52c0,45.34,31.09,71,63.47,71,23.47,0,40-10.53,47.16-23.49a30.06,30.06,0,0,0,28.91,21.82h8a6,6,0,0,0,6.05-6V577.81A6,6,0,0,0,314.3,571.77Zm-40.19-47.18c0,26.17-18,43.81-38.44,43.81-20.73,0-37-16.86-37-43.81v-.52c0-26.42,16.54-43.77,37-43.77s38.44,17.62,38.44,43.77Z"/><path class="cls-1" d="M867.37,571.77h0a6,6,0,0,1-6-6V463a8.56,8.56,0,0,0-8.56-8.56H838.53A8.55,8.55,0,0,0,830,463v13.6c-10.11-14.26-24.36-23.46-46.64-23.46-32.13,0-63.48,25.39-63.48,71v.52c0,45.34,31.09,71,63.48,71,23.47,0,40-10.53,47.15-23.49a30.07,30.07,0,0,0,28.92,21.82h8a6,6,0,0,0,6-6V577.81A6,6,0,0,0,867.37,571.77Zm-40.19-47.18c0,26.17-18,43.81-38.44,43.81-20.74,0-37-16.86-37-43.81v-.52c0-26.42,16.54-43.77,37-43.77s38.44,17.62,38.44,43.77Z"/><path class="cls-1" d="M690.69,699.54c-10.51,0-18.62,2.26-18.62,12V721c0,9.7,8.11,12.22,18.62,12.22S709.3,730.72,709.3,721v-9.51C709.3,701.8,701.22,699.54,690.69,699.54Z"/><path class="cls-1" d="M698.25,752.25H683.42a8.9,8.9,0,0,0-8.9,8.9v127.4a8.92,8.92,0,0,0,8.9,8.91h14.83a8.9,8.9,0,0,0,8.88-8.91V761.15A8.88,8.88,0,0,0,698.25,752.25Z"/><path class="cls-1" d="M600.93,750.89c-22.12,0-35.32,11.22-44.49,24.42V761.14a8.9,8.9,0,0,0-8.9-8.89H532.7a8.89,8.89,0,0,0-8.88,8.89V888.55a8.9,8.9,0,0,0,8.88,8.91h14.84c4.9,0,8.9-4,8.9-10.25V810.5a31.29,31.29,0,1,1,62.58,0v78a8.9,8.9,0,0,0,8.87,8.91h14.84a8.91,8.91,0,0,0,8.9-8.91V805.36C651.62,772.47,633,750.89,600.93,750.89Z"/><path class="cls-1" d="M1074.39,752.57c-.41-.18-.74-.3-.93-.37q-.54-.15-1.14-.27a42.86,42.86,0,0,0-48,23.25v-14a8.9,8.9,0,0,0-8.9-8.9h-14.84a8.91,8.91,0,0,0-8.9,8.9V888.56a8.92,8.92,0,0,0,8.9,8.9h14.84a8.91,8.91,0,0,0,8.9-8.9V834.63c0-43.55,22.73-51.38,35.85-50.32,2.57.21,4.82.56,6.74.82,0,0,.72.08,1.1.1a5.25,5.25,0,0,0,.56,0,6.3,6.3,0,0,0,6.17-5l3.27-21a6,6,0,0,0,.08-1A6.31,6.31,0,0,0,1074.39,752.57Z"/><path class="cls-1" d="M431.73,750.89C388,750.89,356,784.06,356,824.77v.7c0,40.71,32.07,73.87,75.76,73.87s75.75-33.16,75.75-73.87v-.7C507.48,784.06,475.41,750.89,431.73,750.89Zm42.64,74.23v.45c0,24.9-17.33,45-42.64,45.31-25.31-.27-42.65-20.41-42.65-45.31v-.91c0-24.89,17.34-45,42.65-45.31,25.31.28,42.64,20.42,42.64,45.31Z"/><path class="cls-1" d="M899,750.89c-43.69,0-75.76,33.17-75.76,73.88v.7c0,40.71,32.07,73.87,75.76,73.87s75.75-33.16,75.75-73.87v-.7C974.75,784.06,942.68,750.89,899,750.89Zm42.64,74.23v.45c0,24.9-17.33,45-42.64,45.31-25.32-.27-42.65-20.41-42.65-45.31v-.91c0-24.89,17.33-45,42.65-45.31,25.31.28,42.64,20.42,42.64,45.31Z"/><path class="cls-1" d="M330.18,706.28H315.3a8.93,8.93,0,0,0-7.12,3.58l-61.31,83.75-61.3-83.75a8.94,8.94,0,0,0-7.13-3.58H163.56a8.91,8.91,0,0,0-8.89,8.91V888.55a8.91,8.91,0,0,0,8.89,8.91H178.4a8.91,8.91,0,0,0,8.9-8.91V768.3l54.15,69.47a.64.64,0,0,0,.13.15l.43.55h0a6.42,6.42,0,0,0,9.68,0h0l.44-.55a1,1,0,0,0,.13-.15l54.15-69.47V888.55a8.91,8.91,0,0,0,8.9,8.91h14.83a8.91,8.91,0,0,0,8.9-8.91V715.19A8.91,8.91,0,0,0,330.18,706.28Z"/><polygon class="cls-1" points="246.88 840.67 246.87 840.67 246.87 840.67 246.88 840.67"/><path class="cls-1" d="M807.09,752.25h-31V712.51h0A6.22,6.22,0,0,0,775,709a6.29,6.29,0,0,0-8.76-1.54h0l-15.49,10.87a16.57,16.57,0,0,0-7.24,13.7v20.27H733a8.92,8.92,0,0,0-8.92,8.89v9.17a8.92,8.92,0,0,0,8.92,8.9h10.51v78.34c0,31.27,17,41.79,41,41.79,12.72,0,25.8-4.92,25.8-4.92s4.43-1.32,3.3-6.49c-.37-1.77-2.59-14-2.59-14-.54-3-1.78-5.35-6-4.71a68.86,68.86,0,0,1-11.34,1c-11,0-17.51-5.12-17.51-17.8V779.21h31a8.88,8.88,0,0,0,8.9-8.9v-9.17A8.89,8.89,0,0,0,807.09,752.25Z"/><path class="cls-2" d="M821.14,6.85a16,16,0,0,0-22.31-3.93l-393,275.17a16,16,0,0,0,13.1,6.82H808a16,16,0,0,0,16-16V15.78a16,16,0,0,0-2.9-8.93"/><path class="cls-2" d="M428.18,2.91A16,16,0,0,0,403,15.78V269.37L590.07,116.11Z"/></g></svg>