<?xml version="1.0" encoding="UTF-8"?>
<svg id="Layer_2" data-name="Layer 2" xmlns="http://www.w3.org/2000/svg" viewBox="0 0 130.85 21.62">
  <defs>
    <style>
      .cls-1 {
        fill: #4f9481;
        stroke-width: 0px;
      }
    </style>
  </defs>
  <g id="Layer_1-2" data-name="Layer 1">
    <g>
      <path class="cls-1" d="M0,21.32V1.15h13.59v3.51H4.26v4.81h8.63v3.52H4.26v4.81h9.37v3.52H0Z"/>
      <path class="cls-1" d="M23.74,21.62c-1.55,0-2.88-.33-3.99-.99-1.11-.66-1.97-1.58-2.56-2.75-.59-1.17-.89-2.53-.89-4.06s.3-2.91.9-4.08c.6-1.17,1.46-2.09,2.56-2.75,1.11-.66,2.43-.99,3.96-.99,1.32,0,2.48.24,3.47.72.99.48,1.78,1.15,2.35,2.02s.9,1.88.96,3.05h-3.96c-.11-.75-.4-1.36-.88-1.83s-1.1-.69-1.87-.69c-.65,0-1.22.18-1.7.53s-.86.86-1.13,1.53c-.27.67-.4,1.48-.4,2.43s.13,1.79.4,2.46c.27.68.64,1.19,1.13,1.55.49.36,1.05.53,1.7.53.48,0,.91-.1,1.3-.3.38-.2.7-.48.95-.86.25-.38.42-.83.5-1.36h3.96c-.07,1.16-.38,2.17-.94,3.05-.56.88-1.33,1.56-2.32,2.05-.98.49-2.15.74-3.5.74Z"/>
      <path class="cls-1" d="M40.03,21.62c-1.53,0-2.85-.33-3.96-.98-1.11-.65-1.97-1.57-2.57-2.74-.6-1.17-.91-2.53-.91-4.08s.3-2.93.91-4.1c.6-1.17,1.46-2.08,2.57-2.74s2.43-.98,3.96-.98,2.85.33,3.97.98c1.11.65,1.97,1.57,2.57,2.74.6,1.17.9,2.54.9,4.1s-.3,2.91-.9,4.08c-.6,1.17-1.46,2.09-2.57,2.74-1.11.65-2.44.98-3.97.98ZM40.05,18.37c.7,0,1.28-.2,1.74-.6.47-.4.82-.94,1.06-1.63.24-.69.36-1.47.36-2.35s-.12-1.66-.36-2.35c-.24-.69-.59-1.23-1.06-1.64-.46-.4-1.05-.6-1.74-.6s-1.29.2-1.77.6-.84.95-1.07,1.64-.36,1.47-.36,2.35.12,1.66.36,2.35c.24.69.6,1.23,1.07,1.63s1.07.6,1.77.6Z"/>
      <path class="cls-1" d="M52.21,1.15l4.87,15.32h.19l4.89-15.32h4.73l-6.95,20.17h-5.5L47.47,1.15h4.74Z"/>
      <path class="cls-1" d="M71.34,4.25c-.62,0-1.16-.21-1.6-.63-.45-.42-.67-.92-.67-1.5s.22-1.08.67-1.49c.45-.42.98-.63,1.6-.63s1.17.21,1.61.63c.44.42.67.91.67,1.49s-.22,1.08-.67,1.5c-.44.42-.98.63-1.6.63ZM69.23,21.32V6.19h4.2v15.13h-4.2Z"/>
      <path class="cls-1" d="M89.36,10.51l-3.84.24c-.07-.33-.21-.63-.42-.89s-.5-.48-.85-.64c-.35-.16-.77-.24-1.26-.24-.65,0-1.2.14-1.64.41-.45.27-.67.64-.67,1.09,0,.36.14.67.43.92s.78.45,1.49.6l2.74.55c1.47.3,2.57.79,3.29,1.46.72.67,1.08,1.55,1.08,2.64,0,.99-.29,1.86-.87,2.61-.58.75-1.37,1.33-2.38,1.75-1.01.42-2.17.63-3.48.63-2,0-3.6-.42-4.78-1.26s-1.88-1.98-2.08-3.42l4.13-.22c.13.61.43,1.08.91,1.39.48.32,1.09.48,1.84.48s1.33-.14,1.78-.43c.45-.29.68-.65.68-1.11,0-.38-.17-.69-.48-.94-.32-.25-.8-.44-1.46-.57l-2.62-.52c-1.48-.3-2.57-.81-3.29-1.54-.72-.73-1.08-1.66-1.08-2.79,0-.97.26-1.81.79-2.51.53-.7,1.28-1.24,2.24-1.62.96-.38,2.09-.57,3.38-.57,1.91,0,3.41.4,4.51,1.21,1.1.81,1.74,1.91,1.93,3.3Z"/>
      <path class="cls-1" d="M94.47,4.25c-.62,0-1.16-.21-1.6-.63-.45-.42-.67-.92-.67-1.5s.22-1.08.67-1.49c.45-.42.98-.63,1.6-.63s1.17.21,1.61.63c.44.42.67.91.67,1.49s-.22,1.08-.67,1.5c-.44.42-.98.63-1.6.63ZM92.35,21.32V6.19h4.2v15.13h-4.2Z"/>
      <path class="cls-1" d="M106.73,21.62c-1.53,0-2.85-.33-3.96-.98-1.11-.65-1.97-1.57-2.57-2.74-.6-1.17-.91-2.53-.91-4.08s.3-2.93.91-4.1c.6-1.17,1.46-2.08,2.57-2.74s2.43-.98,3.96-.98,2.85.33,3.97.98c1.11.65,1.97,1.57,2.57,2.74.6,1.17.9,2.54.9,4.1s-.3,2.91-.9,4.08c-.6,1.17-1.46,2.09-2.57,2.74-1.11.65-2.44.98-3.97.98ZM106.75,18.37c.7,0,1.28-.2,1.74-.6.47-.4.82-.94,1.06-1.63.24-.69.36-1.47.36-2.35s-.12-1.66-.36-2.35c-.24-.69-.59-1.23-1.06-1.64-.46-.4-1.05-.6-1.74-.6s-1.29.2-1.77.6-.84.95-1.07,1.64-.36,1.47-.36,2.35.12,1.66.36,2.35c.24.69.6,1.23,1.07,1.63s1.07.6,1.77.6Z"/>
      <path class="cls-1" d="M121.1,12.58v8.75h-4.2V6.19h4v2.67h.18c.33-.88.9-1.58,1.68-2.09.79-.51,1.74-.77,2.87-.77,1.05,0,1.97.23,2.75.69.78.46,1.39,1.11,1.82,1.96.43.85.65,1.86.65,3.04v9.63h-4.2v-8.88c0-.93-.23-1.65-.71-2.17-.48-.52-1.14-.78-1.98-.78-.57,0-1.06.12-1.49.36-.43.24-.76.6-1,1.06-.24.46-.36,1.02-.37,1.67Z"/>
    </g>
  </g>
</svg>