<svg xmlns="http://www.w3.org/2000/svg" height="48" width="48" viewBox="0 0 48 48"><title>email open</title><g class="nc-icon-wrapper"><path d="M46.981,17.844c-.003-.02-.003-.039-.007-.059-.025-.114-.072-.22-.134-.317-.006-.01-.007-.022-.013-.032-.007-.011-.019-.016-.027-.026-.066-.089-.141-.172-.236-.236l-.02-.014s-.001,0-.002-.001L24.563,2.174c-.34-.232-.787-.232-1.127,0L1.46,17.158s-.003,.002-.005,.003l-.019,.013c-.094,.064-.17,.147-.236,.236-.008,.011-.02,.016-.027,.027-.007,.01-.007,.022-.013,.032-.062,.098-.109,.203-.134,.317-.004,.02-.004,.039-.007,.058-.008,.052-.019,.103-.019,.156v23c0,2.757,2.243,5,5,5H42c2.757,0,5-2.243,5-5V18c0-.053-.011-.104-.019-.156ZM24,4.21l20.225,13.79-20.225,13.79L3.775,18,24,4.21Z" fill="#e12729"></path></g></svg>