<?xml version="1.0" encoding="UTF-8"?>
<svg id="Layer_1" data-name="Layer 1" xmlns="http://www.w3.org/2000/svg" version="1.1" viewBox="0 0 61.5 61.4">
  <defs>
    <style>
      .cls-1 {
        fill: #c5192d;
      }

      .cls-1, .cls-2, .cls-3, .cls-4, .cls-5, .cls-6, .cls-7, .cls-8, .cls-9, .cls-10, .cls-11, .cls-12, .cls-13, .cls-14, .cls-15, .cls-16, .cls-17 {
        stroke-width: 0px;
      }

      .cls-2 {
        fill: #ff3a21;
      }

      .cls-3 {
        fill: #00689d;
      }

      .cls-4 {
        fill: #19486a;
      }

      .cls-5 {
        fill: #ff6924;
      }

      .cls-6 {
        fill: #ff9f24;
      }

      .cls-7 {
        fill: #bf8b2e;
      }

      .cls-8 {
        fill: #fcc30b;
      }

      .cls-9 {
        fill: #dd1367;
      }

      .cls-10 {
        fill: #4c9f38;
      }

      .cls-11 {
        fill: #e8203a;
      }

      .cls-12 {
        fill: #26bde2;
      }

      .cls-13 {
        fill: #56c22b;
      }

      .cls-14 {
        fill: #3f7e44;
      }

      .cls-15 {
        fill: #0a97d9;
      }

      .cls-16 {
        fill: #a21942;
      }

      .cls-17 {
        fill: #dda63a;
      }
    </style>
  </defs>
  <path class="cls-13" d="M15.8,22c.8-1.3,1.7-2.5,2.8-3.5l-9-9.9c-2.3,2.2-4.2,4.7-5.7,7.5l12,6Z"/>
  <path class="cls-17" d="M37.9,15c1.4.6,2.6,1.4,3.8,2.4l9.1-9.9c-2.4-2.1-5.1-3.8-8-5l-4.8,12.5Z"/>
  <path class="cls-1" d="M58.7,17.9l-12,6c.6,1.3,1,2.8,1.2,4.2l13.4-1.3c-.4-3.2-1.3-6.2-2.6-9"/>
  <path class="cls-10" d="M45.8,22.2l12-6c-1.5-2.8-3.4-5.3-5.6-7.4l-9.1,9.9c1,1.1,1.9,2.2,2.7,3.5"/>
  <path class="cls-14" d="M13.4,30.7c0-.3,0-.5,0-.8L0,28.7c0,.7,0,1.3,0,2,0,2.6.3,5.1.9,7.4l12.9-3.7c-.3-1.2-.4-2.4-.4-3.7"/>
  <path class="cls-8" d="M44.1,41.7c-.9,1.2-2,2.2-3.3,3.1l7.1,11.4c2.6-1.8,4.9-3.9,6.9-6.4l-10.7-8.1Z"/>
  <path class="cls-2" d="M48,30.7c0,1.3-.1,2.5-.4,3.7l12.9,3.7c.6-2.4.9-4.8.9-7.4s0-1.3,0-1.9l-13.4,1.3c0,.2,0,.4,0,.6"/>
  <path class="cls-6" d="M17.5,41.9l-10.7,8.1c2,2.4,4.3,4.6,7,6.3l7.1-11.4c-1.2-.9-2.4-1.9-3.3-3"/>
  <path class="cls-15" d="M13.6,28c.2-1.5.7-3,1.3-4.3l-12-6c-1.3,2.8-2.2,5.9-2.6,9.1l13.4,1.2Z"/>
  <path class="cls-16" d="M46.3,57.2l-7-11.4c-1.3.7-2.7,1.3-4.1,1.7l2.5,13.2c3.1-.7,6-1.9,8.7-3.5"/>
  <path class="cls-12" d="M47.1,36.3c-.5,1.4-1.1,2.7-1.9,3.9l10.7,8.1c1.7-2.5,3.1-5.3,4.1-8.2l-12.9-3.7Z"/>
  <path class="cls-5" d="M33.2,47.9c-.8.1-1.6.2-2.5.2s-1.4,0-2-.1l-2.5,13.2c1.5.2,3,.3,4.5.3s3.4-.1,5-.4l-2.5-13.2Z"/>
  <path class="cls-11" d="M31.8,13.4c1.5,0,2.9.4,4.3.8l4.8-12.5C38.1.7,35,.1,31.8,0v13.4Z"/>
  <path class="cls-9" d="M26.8,47.6c-1.5-.4-2.9-.9-4.3-1.6l-7.1,11.4c2.7,1.6,5.7,2.7,8.8,3.4l2.5-13.2Z"/>
  <path class="cls-4" d="M25.5,14.2c1.4-.4,2.9-.7,4.4-.8V0c-3.2,0-6.3.7-9.2,1.7l4.8,12.5Z"/>
  <path class="cls-7" d="M16.4,40.4c-.9-1.3-1.5-2.6-2-4.1l-12.9,3.7c1,3.1,2.4,5.9,4.3,8.5l10.7-8.1Z"/>
  <path class="cls-3" d="M20,17.1c1.1-.9,2.4-1.7,3.7-2.2l-4.8-12.5c-2.9,1.2-5.5,2.9-7.9,4.8l9,9.9Z"/>
</svg>