<?xml version="1.0" encoding="UTF-8"?>
<svg id="Layer_1" data-name="Layer 1" xmlns="http://www.w3.org/2000/svg" version="1.1" viewBox="0 0 68 103">
  <defs>
    <style>
      .cls-1 {
        fill: #2a2a2a;
      }

      .cls-1, .cls-2 {
        stroke-width: 0px;
      }

      .cls-2 {
        fill: #e12729;
      }
    </style>
  </defs>
  <g>
    <path class="cls-1" d="M0,75.7v-8.3h5.8v1.8h-3.6v1.4h3.2v1.8h-3.2v3.2s-2.2,0-2.2,0Z"/>
    <path class="cls-1" d="M6.6,75.7v-8.3h6v1.8h-3.7v1.4h3.4v1.8h-3.4v1.4h3.7v1.8s-5.9,0-5.9,0Z"/>
    <path class="cls-1" d="M18.1,70c0-.3-.1-.5-.3-.6-.2-.1-.5-.2-.8-.2s-.4,0-.6,0-.3.1-.3.2-.1.2-.1.3c0,0,0,.2,0,.3,0,0,.1.1.2.2s.2.1.3.2c.1,0,.3,0,.5.1h.7c.5.2.8.4,1.2.5s.6.3.8.6.4.5.5.7c0,.3.1.6.1.9,0,.5-.1,1-.4,1.4-.3.4-.7.7-1.2.9-.5.2-1.1.3-1.8.3s-1.3-.1-1.9-.3c-.5-.2-.9-.5-1.2-1-.3-.4-.4-1-.4-1.7h2.1c0,.3,0,.5.2.6s.3.3.5.4.5.1.7.1.4,0,.6,0,.3-.1.4-.2c0-.1.1-.2.1-.4s0-.2-.1-.3c0,0-.2-.2-.4-.3s-.4-.1-.7-.2l-.8-.2c-.7-.2-1.3-.4-1.7-.8s-.6-.9-.6-1.5c0-.5.1-1,.4-1.4s.7-.7,1.2-.9c.5-.2,1.1-.3,1.7-.3s1.2.1,1.7.3.9.5,1.1.9.4.9.4,1.4h-2.1,0Z"/>
    <path class="cls-1" d="M21,69.2v-1.8h7.2v1.8h-2.5v6.5h-2.2v-6.5s-2.5,0-2.5,0Z"/>
    <path class="cls-1" d="M30.1,75.7h-2.4l2.7-8.3h3.1l2.7,8.3h-2.4l-1.8-6h0l-1.8,6h0ZM29.7,72.4h4.5v1.7h-4.5v-1.7Z"/>
  </g>
  <g>
    <path class="cls-1" d="M3.2,89.3H0v-8.3h3.1c.9,0,1.6.2,2.2.5s1.1.8,1.4,1.4c.3.6.5,1.4.5,2.2s-.2,1.6-.5,2.2-.8,1.1-1.4,1.4-1.3.5-2.2.5h0ZM2.2,87.4h.9c.4,0,.8,0,1-.2.3-.1.5-.4.7-.7s.2-.8.2-1.3,0-1-.2-1.3c-.2-.3-.4-.5-.7-.7-.3-.1-.7-.2-1.1-.2h-.8v4.4h0Z"/>
    <path class="cls-1" d="M8.3,89.3v-8.3h5.9v1.8h-3.7v1.4h3.4v1.8h-3.4v1.4h3.7v1.8s-5.9,0-5.9,0Z"/>
    <path class="cls-1" d="M19.8,83.6c0-.3-.1-.5-.3-.6-.2-.1-.5-.2-.8-.2s-.4,0-.6,0c-.1,0-.3.1-.3.2s-.1.2-.1.3c0,0,0,.2,0,.3,0,0,.1.1.2.2s.2.1.3.2c.1,0,.3,0,.5.1h.7c.5.2.8.4,1.2.5s.6.3.8.6.4.5.5.7c0,.3.1.6.1.9,0,.5-.1,1-.4,1.4-.3.4-.7.7-1.2.9-.5.2-1.1.3-1.8.3s-1.3-.1-1.9-.3c-.5-.2-.9-.5-1.2-1-.3-.4-.4-1-.4-1.7h2.1c0,.3,0,.5.2.6s.3.3.5.4.5.1.7.1.4,0,.6,0,.3-.1.4-.2.1-.2.1-.4,0-.2-.1-.3c0,0-.2-.2-.4-.3s-.4-.1-.7-.2l-.8-.2c-.7-.2-1.3-.4-1.7-.8s-.6-.9-.6-1.5c0-.5.1-1,.4-1.4s.7-.7,1.2-.9c.5-.2,1.1-.3,1.7-.3s1.2.1,1.7.3.9.5,1.1.9c.3.4.4.9.4,1.4h-2.1,0Z"/>
    <path class="cls-1" d="M25.2,81v8.3h-2.2v-8.3h2.2Z"/>
    <path class="cls-1" d="M31.6,83.8c0-.3-.2-.5-.5-.7-.1,0-.2-.1-.4-.2s-.3,0-.5,0c-.4,0-.7,0-1,.3s-.5.4-.6.8c-.1.3-.2.7-.2,1.2s0,.9.2,1.2c.1.3.3.6.6.8.3.2.6.3,1,.3s.6,0,.8-.1.4-.2.5-.4.2-.4.2-.6h.4s-1.9,0-1.9,0v-1.6h3.7v1.1c0,.8-.2,1.4-.5,1.9-.3.5-.8,1-1.3,1.2-.6.3-1.2.4-1.9.4s-1.5-.2-2.1-.5c-.6-.3-1.1-.8-1.4-1.5-.3-.6-.5-1.4-.5-2.3s.1-1.3.3-1.8c.2-.5.5-1,.9-1.3.4-.4.8-.6,1.3-.8.5-.2,1-.3,1.6-.3.5,0,.9,0,1.4.2.4.1.8.3,1.1.6s.6.6.8.9c.2.3.3.7.4,1.1h-2.3,0Z"/>
    <path class="cls-1" d="M42.2,81v8.3h-1.9l-3-4.3h0v4.3h-2.2v-8.3h1.9l2.9,4.3h0v-4.3s2.2,0,2.2,0Z"/>
  </g>
  <g>
    <path class="cls-2" d="M4.7,97.2c0-.3-.1-.5-.3-.6-.2-.1-.5-.2-.8-.2s-.4,0-.6,0c-.1,0-.3.1-.3.2s-.1.2-.1.3c0,0,0,.2,0,.3,0,0,.1.1.2.2s.2.1.3.2.3,0,.5.1h.7c.5.2.8.4,1.2.5s.6.3.8.6.4.5.5.7c0,.3.1.6.1.9,0,.5-.1,1-.4,1.4-.3.4-.7.7-1.2.9-.5.2-1.1.3-1.8.3s-1.3-.1-1.9-.3c-.5-.2-.9-.5-1.2-1-.3-.4-.4-1-.4-1.7h2.1c0,.3,0,.5.2.6s.3.3.5.4.5.1.7.1.4,0,.6,0,.3-.1.4-.2.1-.2.1-.4,0-.2-.1-.3c0,0-.2-.2-.4-.3s-.4-.1-.7-.2l-.8-.2c-.7-.2-1.3-.4-1.7-.8s-.6-.9-.6-1.5c0-.5.1-1,.4-1.4.3-.4.7-.7,1.2-.9s1.1-.3,1.7-.3,1.2.1,1.7.3.9.5,1.1.9.4.9.4,1.4h-2.1,0Z"/>
    <path class="cls-2" d="M7.6,96.5v-1.8h7.2v1.8h-2.5v6.5h-2.2v-6.5s-2.5,0-2.5,0Z"/>
    <path class="cls-2" d="M20.5,94.7h2.2v5.3c0,.6-.1,1.2-.5,1.6-.3.5-.7.8-1.2,1.1-.5.3-1.2.4-1.9.4s-1.3-.1-1.9-.4c-.5-.3-1-.6-1.2-1.1-.3-.5-.4-1-.4-1.6v-5.3h2.2v5.1c0,.3,0,.5.2.7s.3.4.5.5.4.2.7.2.5,0,.7-.2c.2-.1.4-.3.5-.5s.2-.4.2-.7v-5.1h0Z"/>
    <path class="cls-2" d="M26.9,102.9h-3.2v-8.3h3.1c.8,0,1.6.2,2.2.5s1.1.8,1.4,1.4c.3.6.5,1.4.5,2.2s-.2,1.6-.5,2.2-.8,1.1-1.4,1.4c-.6.3-1.3.5-2.2.5h0ZM26,101h.9c.4,0,.8,0,1-.2.3-.1.5-.4.7-.7s.2-.8.2-1.3,0-1-.2-1.3-.4-.5-.7-.7c-.3-.1-.7-.2-1.1-.2h-.8v4.4h0Z"/>
    <path class="cls-2" d="M34.3,94.7v8.3h-2.2v-8.3h2.2Z"/>
    <path class="cls-2" d="M43.4,98.8c0,.9-.2,1.7-.5,2.3-.4.6-.8,1.1-1.4,1.4-.6.3-1.3.5-2,.5s-1.4-.2-2-.5c-.6-.3-1.1-.8-1.4-1.4-.4-.6-.5-1.4-.5-2.3s.2-1.7.5-2.3c.4-.6.8-1.1,1.4-1.4.6-.3,1.3-.5,2-.5s1.4.2,2,.5c.6.3,1.1.8,1.4,1.4s.5,1.4.5,2.3h0ZM41.1,98.8c0-.5,0-.9-.2-1.2-.1-.3-.3-.6-.6-.8-.3-.2-.6-.3-.9-.3s-.7,0-.9.3c-.3.2-.4.4-.6.8-.1.3-.2.8-.2,1.2s0,.9.2,1.2c.1.3.3.6.6.8.3.2.6.3.9.3s.7,0,.9-.3c.3-.2.4-.4.6-.8.1-.3.2-.8.2-1.2Z"/>
  </g>
  <path class="cls-2" d="M68,12.4V0H0v61.8h12.4v-24.7h6.2v24.7h49.5V24.7h-12.4v-12.4s12.4,0,12.4,0ZM18.5,24.7h-6.2v-12.4h6.2v12.4ZM38.6,24.7v24.7h-7.7V12.4h7.7v12.4ZM55.6,49.5h-4.6v-12.4h4.6v12.4Z"/>
</svg>