<?xml version="1.0" encoding="UTF-8"?>
<svg id="Layer_2" data-name="Layer 2" xmlns="http://www.w3.org/2000/svg" viewBox="0 0 596.11 79.04">
  <defs>
    <style>
      .cls-1 {
        fill: #2a2e33;
      }

      .cls-1, .cls-2, .cls-3 {
        stroke-width: 0px;
      }

      .cls-2 {
        fill: #fff;
      }

      .cls-3 {
        fill: #00aeef;
      }
    </style>
  </defs>
  <g id="Layer_1-2" data-name="Layer 1">
    <g>
      <g>
        <path class="cls-1" d="M579.1,24.72c10.99,0,17.01,8.05,17.01,18.21,0,1.13-.22,3.54-.22,3.54h-26.48c.75,6.77,5.72,10.3,11.5,10.3,6.17,0,10.76-4.28,10.76-4.28l3.99,6.62s-5.87,5.79-15.42,5.79c-12.71,0-20.61-9.17-20.61-20.09,0-11.81,7.97-20.08,19.48-20.08ZM586.33,39.84c-.16-4.59-3.31-7.75-7.23-7.75-4.89,0-8.34,2.94-9.4,7.75h16.62Z"/>
        <path class="cls-1" d="M218.34,24.72c10.98,0,17,8.05,17,18.21,0,1.13-.23,3.54-.23,3.54h-26.48c.75,6.77,5.71,10.3,11.51,10.3,6.17,0,10.76-4.28,10.76-4.28l3.98,6.62s-5.87,5.79-15.42,5.79c-12.72,0-20.62-9.17-20.62-20.09,0-11.81,7.97-20.08,19.49-20.08ZM225.56,39.84c-.15-4.59-3.31-7.75-7.22-7.75-4.89,0-8.35,2.94-9.4,7.75h16.62Z"/>
        <path class="cls-1" d="M328.81,24.72c10.98,0,17,8.05,17,18.21,0,1.13-.23,3.54-.23,3.54h-26.48c.75,6.77,5.71,10.3,11.5,10.3,6.17,0,10.76-4.28,10.76-4.28l3.98,6.62s-5.87,5.79-15.42,5.79c-12.71,0-20.61-9.17-20.61-20.09,0-11.81,7.98-20.08,19.49-20.08ZM336.03,39.84c-.15-4.59-3.31-7.75-7.22-7.75-4.89,0-8.35,2.94-9.4,7.75h16.62Z"/>
        <path class="cls-1" d="M481.34,35.4c0-1.13-.6-1.66-1.65-1.66h-3.01v-8.13h8.8c3.38,0,5.04,1.58,5.04,4.29v1.13c0,.83-.15,1.66-.15,1.66h.15c1.65-3.24,5.79-7.97,13.55-7.97,8.5,0,13.39,4.44,13.39,14.6v14.97c0,1.06.6,1.65,1.65,1.65h3.01v8.05h-9.1c-3.61,0-5.11-1.5-5.11-5.11v-17.61c0-4.66-1.21-7.82-6.02-7.82-5.12,0-8.95,3.23-10.3,7.82-.53,1.58-.75,3.31-.75,5.12v17.6h-9.48v-28.59Z"/>
        <path class="cls-1" d="M453.19,24.72c11.73,0,21.07,8.35,21.07,20.08s-9.33,20.09-21.07,20.09-20.99-8.27-20.99-20.09,9.33-20.08,20.99-20.08ZM453.19,56.77c6.25,0,11.44-4.81,11.44-11.96s-5.19-11.96-11.44-11.96-11.36,4.89-11.36,11.96,5.19,11.96,11.36,11.96Z"/>
        <path class="cls-1" d="M427.71,44.81c0,11.89-6.62,20.09-17.01,20.09-8.28,0-11.51-5.42-11.51-5.42h-.15s.15,1.36.15,3.31v16.25h-9.55v-43.63c0-1.13-.6-1.66-1.65-1.66h-3.01v-8.13h8.42c3.47,0,4.89,1.43,4.89,3.39v1.35h.15s3.16-5.64,11.89-5.64c10.15,0,17.38,7.9,17.38,20.08ZM408.53,56.84c5.64,0,9.56-4.74,9.56-12.04s-4.45-11.88-9.63-11.88c-6.4,0-9.56,5.87-9.56,11.81,0,8.5,4.66,12.11,9.63,12.11Z"/>
        <path class="cls-1" d="M355.27,51.81s4.89,5.64,11.44,5.64c2.94,0,5.19-1.2,5.19-3.75,0-5.42-20.24-5.35-20.24-17.76,0-7.68,6.92-11.21,14.9-11.21,5.19,0,13.46,1.73,13.46,7.98v3.98h-8.42v-1.88c0-1.81-2.71-2.71-4.82-2.71-3.38,0-5.71,1.2-5.71,3.46,0,6.02,20.39,4.82,20.39,17.6,0,7.23-6.4,11.74-14.75,11.74-10.53,0-15.95-6.85-15.95-6.85l4.51-6.24Z"/>
        <path class="cls-1" d="M530.01,51.81s4.88,5.64,11.44,5.64c2.93,0,5.19-1.2,5.19-3.75,0-5.42-20.24-5.35-20.24-17.76,0-7.68,6.92-11.21,14.9-11.21,5.19,0,13.46,1.73,13.46,7.98v3.98h-8.42v-1.88c0-1.81-2.71-2.71-4.81-2.71-3.39,0-5.72,1.2-5.72,3.46,0,6.02,20.38,4.82,20.38,17.6,0,7.23-6.39,11.74-14.74,11.74-10.53,0-15.95-6.85-15.95-6.85l4.51-6.24Z"/>
        <path class="cls-1" d="M260.49,55.94c-2.64,0-7.6-.9-7.6-7.22v-15.5h8.73v-3.53c0-2.81-1.26-4.07-4.07-4.07h-4.66v-10.46h-9.32v10.46h-5.19v7.6h4.96v16.7c0,12.86,10.61,14.45,15.95,14.45,1.73,0,2.93-.23,2.93-.23v-8.35s-.68.15-1.73.15Z"/>
        <path class="cls-1" d="M170.71,9.63c13.09,0,19.49,6.78,19.49,6.78l-5.57,7.07s-5.57-4.75-13.7-4.75c-9.26,0-17.16,7.3-17.16,18.14,0,11.67,7.97,18.82,17.54,18.82,8.5,0,13.54-5.57,13.54-5.57v-3.99c0-1.13-.6-1.65-1.66-1.65h-3.24v-8.35h8.66c3.61,0,5.12,1.51,5.12,5.04v22.81h-8.43v-2.56c0-1.12.08-2.26.08-2.26h-.15s-5.71,5.72-15.73,5.72c-14,0-25.96-10.69-25.96-27.92,0-15.36,11.66-27.32,27.17-27.32Z"/>
        <path class="cls-1" d="M267.62,10.54h19.04c9.79,0,16.64,6.02,16.64,16.11s-6.62,13.62-8.88,14.08v.14s1.66.75,2.64,2.71l5.19,10.31c.82,1.58,2.11,1.73,3.76,1.73h.97v8.36h-5.19c-3.99,0-5.72-.61-7.45-3.99l-6.85-13.47c-1.13-2.11-2.26-2.49-5.04-2.49h-4.97v19.95h-9.86V10.54ZM285.31,35.59c4.96,0,7.9-3.08,7.9-8.42s-2.94-8.28-7.75-8.28h-7.97v16.7h7.83Z"/>
      </g>
      <g>
        <path class="cls-3" d="M58.45,58.45c-10.81.03-20.75-3.88-28.75-9.76-10.3-7.58-16.51-19.31-18.19-29.73-.13-.79-.26-1.56-.35-2.23-.42-2.92,1.71-6.11,5.31-6.11h2.47c2.24,10.65,8.13,18.18,14.03,22.98,7.9,6.42,17.17,8.8,25.33,8.97,22.15.47,43.69-19.19,57.48-40.71,0,0,0-.01.01-.02-.92-1.13-2.31-1.85-3.88-1.85H5C2.24,0,0,2.24,0,5v64.39c0,2.76,2.24,4.99,5,4.99h106.9c2.76,0,5-2.24,5-4.99V14.19c-18.14,31.89-39,44.2-58.45,44.26Z"/>
        <path class="cls-2" d="M58.29,42.59c-8.16-.18-17.43-2.55-25.33-8.97-5.9-4.8-11.79-12.34-14.03-22.98h-2.47c-3.59,0-5.73,3.18-5.31,6.11.09.66.22,1.44.35,2.23,1.68,10.43,7.89,22.15,18.19,29.73,7.99,5.88,17.94,9.79,28.75,9.76,19.46-.06,40.31-12.37,58.45-44.26h0V4.99c0-1.19-.42-2.28-1.12-3.14,0,0-.01.02-.01.02-13.78,21.52-35.33,41.18-57.48,40.71Z"/>
      </g>
    </g>
  </g>
</svg>