<svg xmlns="http://www.w3.org/2000/svg" width="33" height="33" viewBox="0 0 33 33"><g fill="#212121" class="nc-icon-wrapper"><path fill="#212121" d="M31.74 0h-30.36c-0.76 0-1.38 0.62-1.38 1.38v30.36c0 0.76 0.62 1.38 1.38 1.38h30.36c0.76 0 1.38-0.62 1.38-1.38v-30.36c0-0.76-0.62-1.38-1.38-1.38z m-21.94 28.22h-4.9v-15.8h4.9v15.8z m-2.42-17.94c-1.59 0-2.83-1.24-2.83-2.83s1.24-2.83 2.83-2.83 2.83 1.24 2.83 2.83c0 1.52-1.24 2.83-2.83 2.83z m20.84 17.94h-4.9v-7.66c0-1.86 0-4.21-2.55-4.21s-2.97 2-2.97 4.07v7.8h-4.9v-15.8h4.69v2.14h0.07c0.62-1.24 2.28-2.55 4.63-2.55 4.97 0 5.86 3.24 5.86 7.52v8.69z"></path></g></svg>