<svg xmlns="http://www.w3.org/2000/svg" width="33" height="33" viewBox="0 0 33 33"><g fill="#212121" class="nc-icon-wrapper"><path d="M16.56 4.68c3.87 0 4.33 0.01 5.86 0.09a8.04 8.04 0 0 1 2.69 0.49 4.8 4.8 0 0 1 2.75 2.75 8.04 8.04 0 0 1 0.5 2.7c0.07 1.53 0.08 1.99 0.08 5.85s-0.01 4.33-0.08 5.86a8.04 8.04 0 0 1-0.5 2.69 4.8 4.8 0 0 1-2.75 2.75 8.04 8.04 0 0 1-2.69 0.5c-1.53 0.07-1.99 0.08-5.86 0.08s-4.33-0.01-5.86-0.08a8.04 8.04 0 0 1-2.69-0.5 4.8 4.8 0 0 1-2.75-2.75 8.04 8.04 0 0 1-0.5-2.69c-0.07-1.53-0.08-1.99-0.08-5.86s0.01-4.33 0.08-5.85a8.04 8.04 0 0 1 0.5-2.7 4.8 4.8 0 0 1 2.75-2.75 8.04 8.04 0 0 1 2.69-0.49c1.53-0.07 1.99-0.08 5.86-0.09m0-2.61c-3.93 0-4.43 0.02-5.97 0.09a10.64 10.64 0 0 0-3.52 0.67 7.1 7.1 0 0 0-2.57 1.67 7.1 7.1 0 0 0-1.67 2.57 10.64 10.64 0 0 0-0.67 3.52c-0.07 1.54-0.09 2.04-0.09 5.97s0.02 4.43 0.09 5.97a10.64 10.64 0 0 0 0.67 3.52 7.1 7.1 0 0 0 1.67 2.57 7.1 7.1 0 0 0 2.57 1.67 10.64 10.64 0 0 0 3.52 0.67c1.55 0.07 2.04 0.09 5.97 0.09s4.43-0.02 5.98-0.09a10.64 10.64 0 0 0 3.51-0.67 7.42 7.42 0 0 0 4.24-4.24 10.64 10.64 0 0 0 0.67-3.52c0.07-1.54 0.09-2.04 0.09-5.97s-0.02-4.43-0.09-5.97a10.64 10.64 0 0 0-0.67-3.52 7.1 7.1 0 0 0-1.67-2.57 7.1 7.1 0 0 0-2.57-1.67 10.64 10.64 0 0 0-3.52-0.67c-1.54-0.07-2.04-0.09-5.97-0.09z" fill="#212121"></path><path d="M16.56 9.12a7.44 7.44 0 1 0 7.44 7.44 7.44 7.44 0 0 0-7.44-7.44z m0 12.27a4.83 4.83 0 1 1 4.83-4.83 4.83 4.83 0 0 1-4.83 4.83z" fill="#212121"></path><path fill="#212121" d="M24.29 7.09a1.74 1.74 0 1 0 0 3.47 1.74 1.74 0 1 0 0-3.47z"></path></g></svg>