<svg xmlns="http://www.w3.org/2000/svg" width="33" height="33" viewBox="0 0 33 33"><g class="nc-icon-wrapper"><path fill-rule="evenodd" clip-rule="evenodd" fill="#191717" d="M16.56 0.41c-9.14 0-16.56 7.41-16.56 16.56 0 7.32 4.74 13.52 11.33 15.71 0.83 0.15 1.13-0.36 1.13-0.8 0-0.39-0.01-1.43-0.03-2.81-4.61 1-5.58-2.22-5.57-2.22-0.75-1.91-1.84-2.42-1.84-2.42-1.5-1.03 0.11-1.01 0.11-1.01 1.66 0.12 2.54 1.71 2.54 1.71 1.48 2.53 3.88 1.8 4.82 1.37 0.15-1.07 0.58-1.8 1.05-2.21-3.68-0.42-7.54-1.84-7.55-8.19 0-1.81 0.65-3.29 1.71-4.44-0.17-0.42-0.74-2.1 0.16-4.38 0 0 1.39-0.45 4.56 1.69 1.32-0.37 2.74-0.55 4.14-0.55 1.41 0.01 2.82 0.19 4.15 0.55 3.16-2.14 4.55-1.7 4.55-1.69 0.9 2.28 0.34 3.96 0.16 4.38 1.06 1.16 1.7 2.64 1.7 4.44 0 6.36-3.87 7.76-7.56 8.17 0.59 0.51 1.12 1.52 1.13 3.07 0 2.21-0.02 4-0.02 4.54 0 0.44 0.3 0.96 1.13 0.8 6.58-2.19 11.32-8.4 11.32-15.71 0-9.15-7.42-16.56-16.56-16.56z"></path></g></svg>